<svg width="138" height="137" viewBox="0 0 138 137" fill="none" xmlns="http://www.w3.org/2000/svg">
<path fill-rule="evenodd" clip-rule="evenodd" d="M68.9934 88.8081L83.119 96.23C85.8653 97.6735 89.0833 95.3428 88.5552 92.2796L85.8582 76.5556L97.2868 65.4298C99.512 63.2609 98.2867 59.4795 95.2095 59.0359L79.4221 56.7403L72.3593 42.4246C70.9862 39.6361 67.0147 39.6361 65.6345 42.4246L58.5788 56.7403L42.7914 59.0359C39.7142 59.4795 38.4889 63.2609 40.7141 65.4298L52.1427 76.5556L49.4458 92.2796C48.9176 95.3428 52.1357 97.6735 54.8819 96.23L69.0075 88.8081H68.9934V88.8081Z" stroke="#1DB96E" stroke-width="3" stroke-linecap="round" stroke-linejoin="round"/>
<path d="M135.896 68.5H128.15" stroke="#1DB96E" stroke-width="3" stroke-linecap="round" stroke-linejoin="round"/>
<path d="M9.85033 68.5H2.10449" stroke="#1DB96E" stroke-width="3" stroke-linecap="round" stroke-linejoin="round"/>
<path d="M117.306 20.1941L109.912 27.5878" stroke="#1DB96E" stroke-width="3" stroke-linecap="round" stroke-linejoin="round"/>
<path d="M20.835 117.017L28.2991 109.553" stroke="#1DB96E" stroke-width="3" stroke-linecap="round" stroke-linejoin="round"/>
<path d="M20.6943 20.335L28.0881 27.7991" stroke="#1DB96E" stroke-width="3" stroke-linecap="round" stroke-linejoin="round"/>
<path d="M117.517 116.806L110.053 109.412" stroke="#1DB96E" stroke-width="3" stroke-linecap="round" stroke-linejoin="round"/>
<path d="M69.0003 127.932V135.396" stroke="#1DB96E" stroke-width="3" stroke-linecap="round" stroke-linejoin="round"/>
<path d="M69.0003 1.60413V9.06829" stroke="#1DB96E" stroke-width="3" stroke-linecap="round" stroke-linejoin="round"/>
</svg>
