<svg width="80" height="81" viewBox="0 0 80 81" fill="none" xmlns="http://www.w3.org/2000/svg"><g clip-path="url(#a)"><path d="M68.278 68.777c15.62-15.62 15.62-40.944 0-56.564-15.62-15.62-40.944-15.62-56.564 0-15.62 15.62-15.62 40.945 0 56.564 15.62 15.62 40.945 15.62 56.564 0Z" fill="#8D99AE"/><path d="M39.997 54.066c8.592 0 15.557-9.006 15.557-20.116S48.59 13.834 39.997 13.834c-8.593 0-15.558 9.006-15.558 20.116s6.965 20.116 15.558 20.116ZM40.003 55.554c-13.02 0-24.47 3.978-31.165 10.006a39.978 39.978 0 0 0 62.324 0c-6.689-6.028-18.146-10.006-31.159-10.006Z" fill="#fff"/><path d="M41.745 40.497H38.26a5.941 5.941 0 0 0-5.941 5.941v13.52A5.941 5.941 0 0 0 38.26 65.9h3.484a5.941 5.941 0 0 0 5.941-5.942v-13.52a5.941 5.941 0 0 0-5.941-5.941ZM26.588 34.877c.908 2.612.55 5.107-.803 5.558-1.352.451-3.174-1.235-4.082-3.872-.908-2.638-.543-5.102.803-5.559 1.346-.457 3.18 1.266 4.082 3.873ZM58.298 36.58c.906-2.61.546-5.105-.804-5.574-1.35-.47-3.179 1.267-4.085 3.877-.907 2.61-.547 5.106.803 5.574 1.35.47 3.18-1.267 4.086-3.877Z" fill="#fff"/><path d="M26.385 34.796c-2.02-3.705-4.101-7.584-3.996-11.778.105-4.193 3.298-8.646 7.491-8.473.725.096 1.457.125 2.187.086 1.451-.204 2.526-1.39 3.705-2.267a9.845 9.845 0 0 1 9.407-1.185c1.89.765 3.495 2.118 5.336 2.989a12.005 12.005 0 0 0 10.969-.439 6.262 6.262 0 0 1-3.218 2.854c1.27.4 2.639.36 3.885-.111a6.634 6.634 0 0 1-3.41 2.97l3.194.223a8.028 8.028 0 0 1-3.675 2.853l2.501.08a5.874 5.874 0 0 1-4.12 3.774h1.613l-5.287 7.634a6.793 6.793 0 0 1-1.773 1.951 6.34 6.34 0 0 1-2.063.735 51.719 51.719 0 0 1-15.959 1.044c-1.853-.167-3.705-.47-5.182-1.587-1.476-1.118-2.223-3.304-1.235-4.842M29.973 59.353c.113-2.112.375-4.213.784-6.288 1.044 1.199 2.817 1.347 4.398 1.409l7.195.296c.278 1.63.47 3.557-.71 4.719a4.527 4.527 0 0 1-2.045 1.013c-1.609.448-3.27.682-4.94.697-1.99 0-4.36-.586-4.997-2.47l.618-.531" fill="#fff"/><path d="M50.058 59.353a45.894 45.894 0 0 0-.785-6.288c-1.043 1.199-2.816 1.347-4.403 1.409l-7.19.296c-.277 1.63-.475 3.557.711 4.719a4.497 4.497 0 0 0 2.044 1.013c1.61.448 3.27.683 4.941.697 1.99 0 4.36-.586 5.003-2.47l-.618-.531" fill="#fff"/></g><defs><clipPath id="a"><rect y=".5" width="80" height="80" rx="40" fill="#fff"/></clipPath></defs></svg>