<svg width="59" height="71" viewBox="0 0 59 71" fill="none" xmlns="http://www.w3.org/2000/svg">
<path d="M33.1538 21.2284C33.1657 22.8767 34.5053 24.2067 36.1537 24.2067H58.5679V67.2114C58.5124 68.2045 58.0718 69.1367 57.3399 69.8099C56.6079 70.483 55.6423 70.8439 54.6484 70.8159H3.63736C3.16008 70.825 2.68584 70.7382 2.24268 70.5607C1.79951 70.3832 1.39643 70.1186 1.05731 69.7825C0.718182 69.4464 0.449902 69.0457 0.268324 68.6041C0.0867453 68.1625 -0.00444856 67.6889 0.000169883 67.2114V4.44438C-0.00448985 3.96739 0.0867534 3.49437 0.268461 3.05335C0.45017 2.61234 0.71864 2.21234 1.05793 1.87716C1.39722 1.54198 1.80039 1.27844 2.24351 1.1022C2.68662 0.925962 3.16062 0.840615 3.63736 0.851238H33.006L33.1538 21.2284Z" fill="#8D99AE"/>
<path d="M38.5858 20.7069C37.4815 20.7116 36.5824 19.8203 36.5774 18.716L36.5065 3.10471C36.5025 2.23246 37.5392 1.7736 38.1822 2.363L56.2212 18.8985C56.892 19.5134 56.4596 20.6319 55.5497 20.6357L38.5858 20.7069Z" fill="#8D99AE"/>
</svg>
