<svg width="733" height="1014" viewBox="0 0 733 1014" fill="none" xmlns="http://www.w3.org/2000/svg">
<path d="M-14.256 263.879L-22.3604 232.623L8.76398 241.236L-14.256 263.879Z" fill="#2B2D42"/>
<path d="M-13.5765 199.072L10.131 175.754L18.4782 207.943L-13.5765 199.072Z" fill="#2B2D42"/>
<path d="M9.52376 288.997L33.4825 265.43L41.8746 297.95L9.52376 288.997Z" fill="#2B2D42"/>
<path d="M51.6645 199.728L43.1241 166.757L75.9399 175.838L51.6645 199.728Z" fill="#2B2D42"/>
<path d="M-37.1161 109.253L-13.0799 85.5707L-4.59612 118.253L-37.1161 109.253Z" fill="#2B2D42"/>
<path d="M8.89646 354.276L0.579885 322.141L32.55 330.988L8.89646 354.276Z" fill="#2B2D42"/>
<path d="M74.4891 291.308L65.1593 255.432L100.893 265.32L74.4891 291.308Z" fill="#2B2D42"/>
<path d="M73.4098 224.465L100.304 198.021L109.736 234.517L73.4098 224.465Z" fill="#2B2D42"/>
<path d="M52.3243 134.005L76.4027 110.334L84.8442 143.005L52.3243 134.005Z" fill="#2B2D42"/>
<path d="M28.4184 109.671L19.9769 77.0007L52.4968 86L28.4184 109.671Z" fill="#2B2D42"/>
<path d="M32.6241 378.923L56.8339 355.106L65.3555 387.98L32.6241 378.923Z" fill="#2B2D42"/>
<path d="M98.0909 379.915L89.3878 346.216L122.923 355.496L98.0909 379.915Z" fill="#2B2D42"/>
<path d="M96.2213 314.447L123.684 287.431L133.351 324.722L96.2213 314.447Z" fill="#2B2D42"/>
<path d="M140.051 228.286L129.835 188.703L169.206 199.598L140.051 228.286Z" fill="#2B2D42"/>
<path d="M139.16 159.447L166.569 132.462L176.205 169.699L139.16 159.447Z" fill="#2B2D42"/>
<path d="M117.69 135.194L108.846 101.183L142.719 110.557L117.69 135.194Z" fill="#2B2D42"/>
<path d="M28.8271 44.1967L53.18 20.1919L61.77 53.313L28.8271 44.1967Z" fill="#2B2D42"/>
<path d="M4.82111 20.8838L-4.09417 -13.6939L30.2864 -4.17969L4.82111 20.8838Z" fill="#2B2D42"/>
<path d="M-33.1805 443.973L-9.47287 420.655L-1.1257 452.843L-33.1805 443.973Z" fill="#2B2D42"/>
<path d="M32.2596 443.909L24.0491 412.213L55.5964 420.943L32.2596 443.909Z" fill="#2B2D42"/>
<path d="M123.49 403.295L145.876 381.297L153.768 411.674L123.49 403.295Z" fill="#2B2D42"/>
<path d="M163.485 317.667L153.481 278.962L191.963 289.611L163.485 317.667Z" fill="#2B2D42"/>
<path d="M160.685 249.801L190.354 220.572L200.817 260.907L160.685 249.801Z" fill="#2B2D42"/>
<path d="M206.721 161.426L197.259 124.875L233.627 134.939L206.721 161.426Z" fill="#2B2D42"/>
<path d="M118.514 68.8796L142.604 45.1664L151.076 77.8906L118.514 68.8796Z" fill="#2B2D42"/>
<path d="M94.6549 44.376L86.27 11.9948L118.494 20.9121L94.6549 44.376Z" fill="#2B2D42"/>
<path d="M58.263 468.23L79.4289 447.351L86.8923 476.153L58.263 468.23Z" fill="#2B2D42"/>
<path d="M122.519 465.698L115.617 439.147L142.09 446.473L122.519 465.698Z" fill="#2B2D42"/>
<path d="M188.557 401.124L181.423 373.598L208.826 381.182L188.557 401.124Z" fill="#2B2D42"/>
<path d="M188.254 338.55L212.464 314.733L220.985 347.607L188.254 338.55Z" fill="#2B2D42"/>
<path d="M229.885 251.78L220.199 214.393L257.413 224.691L229.885 251.78Z" fill="#2B2D42"/>
<path d="M229.629 183.935L255.771 158.239L264.94 193.707L229.629 183.935Z" fill="#2B2D42"/>
<path d="M207.858 93.6492L232.068 69.8324L240.589 102.707L207.858 93.6492Z" fill="#2B2D42"/>
<path d="M184.154 68.9157L175.856 36.8775L207.742 45.7012L184.154 68.9157Z" fill="#2B2D42"/>
<path d="M-8.80493 533.567L13.5274 511.6L21.3468 541.911L-8.80493 533.567Z" fill="#2B2D42"/>
<path d="M56.3415 530.781L49.5002 504.338L75.8036 511.617L56.3415 530.781Z" fill="#2B2D42"/>
<path d="M153.158 491.53L167.413 477.529L172.4 496.855L153.158 491.53Z" fill="#2B2D42"/>
<path d="M213.938 483.3L210.333 469.185L224.372 473.07L213.938 483.3Z" fill="#2B2D42"/>
<path d="M220.323 426.175L233.291 413.367L237.915 431.043L220.323 426.175Z" fill="#2B2D42"/>
<path d="M254.728 335.902L247.644 308.526L274.92 316.074L254.728 335.902Z" fill="#2B2D42"/>
<path d="M255.677 273.082L278.26 250.865L286.251 281.543L255.677 273.082Z" fill="#2B2D42"/>
<path d="M297.215 182.37L289.471 152.443L319.284 160.693L297.215 182.37Z" fill="#2B2D42"/>
<path d="M300.919 117.489L320.513 98.1789L327.434 124.826L300.919 117.489Z" fill="#2B2D42"/>
<path d="M274.198 91.6489L266.822 63.1905L295.155 71.0312L274.198 91.6489Z" fill="#2B2D42"/>
<path d="M186.183 3.34406L208.33 -18.4474L216.166 11.6412L186.183 3.34406Z" fill="#2B2D42"/>
<path d="M86.1749 556.892L101.446 541.852L106.812 562.603L86.1749 556.892Z" fill="#2B2D42"/>
<path d="M147.416 549.79L143.146 533.305L159.554 537.846L147.416 549.79Z" fill="#2B2D42"/>
<path d="M250.087 514.39L254.793 509.726L256.473 516.157L250.087 514.39Z" fill="#2B2D42"/>
<path d="M280.526 416.736L277.55 405.118L289.094 408.312L280.526 416.736Z" fill="#2B2D42"/>
<path d="M287.703 360.695L299.153 349.425L303.181 364.978L287.703 360.695Z" fill="#2B2D42"/>
<path d="M321.807 267.562L316.18 245.782L337.831 251.773L321.807 267.562Z" fill="#2B2D42"/>
<path d="M326.955 206.679L343.057 190.776L348.734 212.706L326.955 206.679Z" fill="#2B2D42"/>
<path d="M365.395 110.054L360.882 92.6355L378.22 97.4336L365.395 110.054Z" fill="#2B2D42"/>
<path d="M278.998 27.252L296.888 9.65697L303.187 33.9458L278.998 27.252Z" fill="#2B2D42"/>
<path d="M251.233 0.576054L244.392 -25.8669L270.695 -18.5879L251.233 0.576054Z" fill="#2B2D42"/>
<path d="M182.388 579.873L189.013 573.371L191.395 582.365L182.388 579.873Z" fill="#2B2D42"/>
<path d="M238.683 567.94L237.413 562.988L242.318 564.346L238.683 567.94Z" fill="#2B2D42"/>
<path d="M305.212 501.589L304.453 498.737L307.329 499.533L305.212 501.589Z" fill="#2B2D42"/>
<path d="M317.564 448.893L320.62 445.913L321.708 450.04L317.564 448.893Z" fill="#2B2D42"/>
<path d="M347.161 350.004L344.87 341.171L353.666 343.605L347.161 350.004Z" fill="#2B2D42"/>
<path d="M356.389 294.941L364.652 286.797L367.553 298.03L356.389 294.941Z" fill="#2B2D42"/>
<path d="M389.46 197.149L386.199 184.587L398.716 188.051L389.46 197.149Z" fill="#2B2D42"/>
<path d="M399.189 139.947L407.56 131.742L410.523 143.083L399.189 139.947Z" fill="#2B2D42"/>
<path d="M374.76 50.383L384.595 40.6705L388.081 54.0693L374.76 50.383Z" fill="#2B2D42"/>
<path d="M342.16 19.9546L337.777 2.89125L354.735 7.58398L342.16 19.9546Z" fill="#2B2D42"/>
<path d="M276.231 603.52L277.301 602.449L277.669 603.918L276.231 603.52Z" fill="#2B2D42"/>
<path d="M371.624 435.66L371.214 434.18L372.695 434.59L371.624 435.66Z" fill="#2B2D42"/>
<path d="M384.632 383.556L386.563 381.676L387.212 384.27L384.632 383.556Z" fill="#2B2D42"/>
<path d="M413.959 282.678L412.658 277.672L417.648 279.053L413.959 282.678Z" fill="#2B2D42"/>
<path d="M425.868 228.949L429.928 224.972L431.324 230.459L425.868 228.949Z" fill="#2B2D42"/>
<path d="M456.938 127.37L455.762 122.9L460.202 124.129L456.938 127.37Z" fill="#2B2D42"/>
<path d="M470.137 73.5877L472.451 71.3131L473.266 74.4537L470.137 73.5877Z" fill="#2B2D42"/>
<path d="M433.364 38.4972L431.764 32.2699L437.938 33.9785L433.364 38.4972Z" fill="#2B2D42"/>
<path d="M480.622 215.68L480.198 213.923L481.931 214.402L480.622 215.68Z" fill="#2B2D42"/>
<path d="M494.266 163.25L495.455 162.076L495.873 163.695L494.266 163.25Z" fill="#2B2D42"/>
<path d="M51.6784 704.436L50.4082 699.484L55.3137 700.842L51.6784 704.436Z" fill="#2B2D42"/>
<path d="M121.226 645.226L127.851 638.724L130.233 647.719L121.226 645.226Z" fill="#2B2D42"/>
<path d="M62.4297 617.97L58.1595 601.485L74.5674 606.025L62.4297 617.97Z" fill="#2B2D42"/>
<path d="M2.70848 614.435L15.7496 603.484L18.7151 620.248L2.70848 614.435Z" fill="#2B2D42"/>
</svg>
