<svg width="780" height="620" viewBox="0 0 780 620" fill="none" xmlns="http://www.w3.org/2000/svg"><path d="m774.757 545.207-57.692-33.342 57.692-33.293v66.635ZM772.535 439.095l-50.977-29.428 50.977-29.476v58.904ZM766.35 460.79l-60.495 34.888v-69.824l60.495 34.936ZM767.171 562.99l-61.703 35.612v-71.225l61.703 35.613ZM772.486 643.493l-50.879-29.379 50.879-29.38v58.759ZM767.171 327.569l-34.886-20.15 34.886-20.149v40.299ZM756.638 358.542l-45.903 26.528v-53.056l45.903 26.528ZM689.088 499.012l-66.245-38.222 66.245-38.27v76.492ZM686.72 511.865l-73.831 42.619v-85.238l73.831 42.619ZM690.876 604.305l-71.609-41.315 71.609-41.314v82.629ZM761.904 216.285 742.77 205.22l19.134-11.066v22.131ZM743.737 256.343l-26.576 15.317v-30.683l26.576 15.366ZM682.758 385.795l-47.207-27.253 47.207-27.253v54.506ZM675.945 409.666l-57.693 33.293v-66.635l57.693 33.342ZM602.887 554.099l-73.155-42.233 73.155-42.184v84.417ZM685.029 614.113l-71.27 41.17v-82.34l71.27 41.17ZM757.604 106.549l-6.185-3.528 6.185-3.576v7.104ZM733.251 154.096l-10.871 6.282v-12.564l10.871 6.282ZM675.075 270.308l-24.207-13.965 24.207-14.013v27.978ZM660.048 307.418l-33.823 19.522v-39.044l33.823 19.522ZM596.606 441.027l-54.311-31.36 54.311-31.36v62.72ZM590.276 460.791 528.331 496.5v-71.467l61.945 35.758ZM599.65 562.989l-76.006 43.875v-87.751l76.006 43.876ZM603.708 657.796l-75.667-43.683 75.667-43.73v87.413ZM727.357 51.896l-1.982 1.16v-2.32l1.982 1.16ZM669.857 159.024l-8.504-4.929 8.504-4.88v9.809ZM646.712 205.221l-13.819 7.972v-15.994l13.819 8.022ZM588.053 323.993 559.4 307.418l28.653-16.525v33.1ZM573.751 358.542l-37.158 21.455v-42.909l37.158 21.454ZM506.974 490.218l-51.025-29.428 51.025-29.476v58.904ZM496.972 511.866l-54.745 31.65v-63.252l54.745 31.602ZM513.255 603.337l-69.82-40.348 69.82-40.3v80.648ZM639.658 103.021l-3.238 1.836v-3.72l3.238 1.884ZM581.868 211.067l-10.147-5.847 10.147-5.847v11.694ZM558.724 256.343l-14.593 8.408v-16.864l14.593 8.456ZM499.05 374.247l-27.204-15.705 27.204-15.704v31.409ZM481.945 409.666l-32.229 18.604v-37.208l32.229 18.604ZM415.361 535.977l-41.699-24.112 41.699-24.064v48.176ZM507.022 614.114l-69.869 40.348v-80.696l69.869 40.348ZM579.162 104.132l-1.981-1.111 1.981-1.16v2.271ZM551.379 154.095l-3.624 2.078v-4.155l3.624 2.077ZM493.01 261.562l-9.084-5.219 9.084-5.267v10.486ZM468.802 307.419l-12.515 7.199v-14.399l12.515 7.2ZM408.5 421.844l-21.115-12.177 21.115-12.226v24.403ZM388.786 460.79l-25.271 14.593v-29.235l25.271 14.642ZM549.205 51.896l-.338.145v-.338l.338.193ZM490.497 155.014l-1.594-.918 1.594-.918v1.836ZM462.279 205.22l-2.754 1.594v-3.189l2.754 1.595ZM403.668 311.285 397 307.419l6.668-3.817v7.683ZM377.962 358.543l-9.035 5.218v-10.437l9.035 5.219ZM318.53 470.453l-16.815-9.664 16.815-9.713v19.377ZM298.478 511.866l-22.565 13.046v-26.045l22.565 12.999ZM489.967 51.897h-.05l.05-.05v.05ZM460.589 103.021l-.194.049v-.146l.194.097ZM401.784 205.8l-1.015-.58 1.015-.579v1.159ZM373.179 256.344l-1.836 1.063v-2.126l1.836 1.063ZM314.327 360.959l-4.204-2.416 4.204-2.416v4.832ZM288.041 409.665l-6.91 3.962v-7.973l6.91 4.011ZM402.992 562.989l-46.58 26.915v-53.83l46.58 26.915ZM421.546 648.904l-60.302-34.791 60.302-34.84v69.631ZM325.488 584.781l-37.689-21.793 37.689-21.793v43.586ZM312.055 614.112 269.1 638.901v-49.626l42.955 24.837ZM372.02 154.096l-.097.049v-.098l.097.049ZM313.07 256.584l-.435-.241.435-.29v.531ZM283.982 307.419l-.821.483v-.966l.821.483ZM11.404 612.949 7.2 610.533l4.204-2.416v4.832ZM222.004 436.631l-4.204-2.416 4.204-2.416v4.832ZM214.236 483.797l-9.036 5.218v-10.437l9.036 5.219ZM150.904 490.606l-4.204-2.417 4.204-2.416v4.833ZM236.415 531.238l-16.815-9.664 16.815-9.713v19.377ZM127.51 550.057l-6.91 3.963v-7.973l6.91 4.01ZM112.21 614.827l-6.91 3.962v-7.973l6.91 4.011ZM157.215 589.711l-16.815-9.664 16.815-9.713v19.377ZM224.165 567.141 201.6 580.188v-26.045l22.565 12.998ZM243.789 632.812 206.1 611.019l37.689-21.792v43.585Z" fill="#8D99AE"/></svg>