<svg width="780" height="620" viewBox="0 0 780 620" fill="none" xmlns="http://www.w3.org/2000/svg">
<path d="M774.757 545.207L717.065 511.865L774.757 478.572V545.207Z" fill="#8D99AE"/>
<path d="M772.535 439.095L721.558 409.667L772.535 380.191V439.095Z" fill="#8D99AE"/>
<path d="M766.35 460.79L705.855 495.678V425.854L766.35 460.79Z" fill="#8D99AE"/>
<path d="M767.171 562.99L705.468 598.602V527.377L767.171 562.99Z" fill="#8D99AE"/>
<path d="M772.486 643.493L721.607 614.114L772.486 584.734V643.493Z" fill="#8D99AE"/>
<path d="M767.171 327.569L732.285 307.419L767.171 287.27V327.569Z" fill="#8D99AE"/>
<path d="M756.638 358.542L710.735 385.07V332.014L756.638 358.542Z" fill="#8D99AE"/>
<path d="M689.088 499.012L622.843 460.79L689.088 422.52V499.012Z" fill="#8D99AE"/>
<path d="M686.72 511.865L612.889 554.484V469.246L686.72 511.865Z" fill="#8D99AE"/>
<path d="M690.876 604.305L619.267 562.99L690.876 521.676V604.305Z" fill="#8D99AE"/>
<path d="M761.904 216.285L742.77 205.22L761.904 194.154V216.285Z" fill="#8D99AE"/>
<path d="M743.737 256.343L717.161 271.66V240.977L743.737 256.343Z" fill="#8D99AE"/>
<path d="M682.758 385.795L635.551 358.542L682.758 331.289V385.795Z" fill="#8D99AE"/>
<path d="M675.945 409.666L618.252 442.959V376.324L675.945 409.666Z" fill="#8D99AE"/>
<path d="M602.887 554.099L529.732 511.866L602.887 469.682V554.099Z" fill="#8D99AE"/>
<path d="M685.029 614.113L613.759 655.283V572.943L685.029 614.113Z" fill="#8D99AE"/>
<path d="M757.604 106.549L751.419 103.021L757.604 99.4453V106.549Z" fill="#8D99AE"/>
<path d="M733.251 154.096L722.38 160.378V147.814L733.251 154.096Z" fill="#8D99AE"/>
<path d="M675.075 270.308L650.868 256.343L675.075 242.33V270.308Z" fill="#8D99AE"/>
<path d="M660.048 307.418L626.225 326.94V287.896L660.048 307.418Z" fill="#8D99AE"/>
<path d="M596.606 441.027L542.295 409.667L596.606 378.307V441.027Z" fill="#8D99AE"/>
<path d="M590.276 460.791L528.331 496.5V425.033L590.276 460.791Z" fill="#8D99AE"/>
<path d="M599.65 562.989L523.644 606.864V519.113L599.65 562.989Z" fill="#8D99AE"/>
<path d="M603.708 657.796L528.041 614.113L603.708 570.383V657.796Z" fill="#8D99AE"/>
<path d="M727.357 51.896L725.375 53.0557V50.7363L727.357 51.896Z" fill="#8D99AE"/>
<path d="M669.857 159.024L661.353 154.095L669.857 149.215V159.024Z" fill="#8D99AE"/>
<path d="M646.712 205.221L632.893 213.193V197.199L646.712 205.221Z" fill="#8D99AE"/>
<path d="M588.053 323.993L559.4 307.418L588.053 290.893V323.993Z" fill="#8D99AE"/>
<path d="M573.751 358.542L536.593 379.997V337.088L573.751 358.542Z" fill="#8D99AE"/>
<path d="M506.974 490.218L455.949 460.79L506.974 431.314V490.218Z" fill="#8D99AE"/>
<path d="M496.972 511.866L442.227 543.516V480.264L496.972 511.866Z" fill="#8D99AE"/>
<path d="M513.255 603.337L443.435 562.989L513.255 522.689V603.337Z" fill="#8D99AE"/>
<path d="M639.658 103.021L636.42 104.857V101.137L639.658 103.021Z" fill="#8D99AE"/>
<path d="M581.868 211.067L571.721 205.22L581.868 199.373V211.067Z" fill="#8D99AE"/>
<path d="M558.724 256.343L544.131 264.751V247.887L558.724 256.343Z" fill="#8D99AE"/>
<path d="M499.05 374.247L471.846 358.542L499.05 342.838V374.247Z" fill="#8D99AE"/>
<path d="M481.945 409.666L449.716 428.27V391.062L481.945 409.666Z" fill="#8D99AE"/>
<path d="M415.361 535.977L373.662 511.865L415.361 487.801V535.977Z" fill="#8D99AE"/>
<path d="M507.022 614.114L437.153 654.462V573.766L507.022 614.114Z" fill="#8D99AE"/>
<path d="M579.162 104.132L577.181 103.021L579.162 101.861V104.132Z" fill="#8D99AE"/>
<path d="M551.379 154.095L547.755 156.173V152.018L551.379 154.095Z" fill="#8D99AE"/>
<path d="M493.01 261.562L483.926 256.343L493.01 251.076V261.562Z" fill="#8D99AE"/>
<path d="M468.802 307.419L456.287 314.618V300.219L468.802 307.419Z" fill="#8D99AE"/>
<path d="M408.5 421.844L387.385 409.667L408.5 397.441V421.844Z" fill="#8D99AE"/>
<path d="M388.786 460.79L363.515 475.383V446.148L388.786 460.79Z" fill="#8D99AE"/>
<path d="M549.205 51.8964L548.867 52.0414V51.7031L549.205 51.8964Z" fill="#8D99AE"/>
<path d="M490.497 155.014L488.903 154.096L490.497 153.178V155.014Z" fill="#8D99AE"/>
<path d="M462.279 205.22L459.525 206.814V203.625L462.279 205.22Z" fill="#8D99AE"/>
<path d="M403.668 311.285L397 307.419L403.668 303.602V311.285Z" fill="#8D99AE"/>
<path d="M377.962 358.543L368.927 363.761V353.324L377.962 358.543Z" fill="#8D99AE"/>
<path d="M318.53 470.453L301.715 460.789L318.53 451.076V470.453Z" fill="#8D99AE"/>
<path d="M298.478 511.866L275.913 524.912V498.867L298.478 511.866Z" fill="#8D99AE"/>
<path d="M489.967 51.897H489.917L489.967 51.8477V51.897Z" fill="#8D99AE"/>
<path d="M460.589 103.021L460.395 103.07V102.924L460.589 103.021Z" fill="#8D99AE"/>
<path d="M401.784 205.8L400.769 205.22L401.784 204.641V205.8Z" fill="#8D99AE"/>
<path d="M373.179 256.344L371.343 257.407V255.281L373.179 256.344Z" fill="#8D99AE"/>
<path d="M314.327 360.959L310.123 358.543L314.327 356.127V360.959Z" fill="#8D99AE"/>
<path d="M288.041 409.665L281.131 413.627V405.654L288.041 409.665Z" fill="#8D99AE"/>
<path d="M402.992 562.989L356.412 589.904V536.074L402.992 562.989Z" fill="#8D99AE"/>
<path d="M421.546 648.904L361.244 614.113L421.546 579.273V648.904Z" fill="#8D99AE"/>
<path d="M325.488 584.781L287.799 562.988L325.488 541.195V584.781Z" fill="#8D99AE"/>
<path d="M312.055 614.112L269.1 638.901V589.275L312.055 614.112Z" fill="#8D99AE"/>
<path d="M372.02 154.096L371.923 154.145V154.047L372.02 154.096Z" fill="#8D99AE"/>
<path d="M313.07 256.584L312.635 256.343L313.07 256.053V256.584Z" fill="#8D99AE"/>
<path d="M283.982 307.419L283.161 307.902V306.936L283.982 307.419Z" fill="#8D99AE"/>
<path d="M11.4037 612.949L7.2 610.533L11.4037 608.117V612.949Z" fill="#8D99AE"/>
<path d="M222.004 436.631L217.8 434.215L222.004 431.799V436.631Z" fill="#8D99AE"/>
<path d="M214.236 483.797L205.2 489.015V478.578L214.236 483.797Z" fill="#8D99AE"/>
<path d="M150.904 490.606L146.7 488.189L150.904 485.773V490.606Z" fill="#8D99AE"/>
<path d="M236.415 531.238L219.6 521.574L236.415 511.861V531.238Z" fill="#8D99AE"/>
<path d="M127.51 550.057L120.6 554.02V546.047L127.51 550.057Z" fill="#8D99AE"/>
<path d="M112.21 614.827L105.3 618.789V610.816L112.21 614.827Z" fill="#8D99AE"/>
<path d="M157.215 589.711L140.4 580.047L157.215 570.334V589.711Z" fill="#8D99AE"/>
<path d="M224.165 567.141L201.6 580.188V554.143L224.165 567.141Z" fill="#8D99AE"/>
<path d="M243.789 632.812L206.1 611.019L243.789 589.227V632.812Z" fill="#8D99AE"/>
</svg>
