<svg width="733" height="1014" viewBox="0 0 733 1014" fill="none" xmlns="http://www.w3.org/2000/svg"><path d="m-14.256 263.879-8.104-31.256 31.124 8.613-23.02 22.643ZM-13.576 199.072l23.707-23.318 8.347 32.189-32.054-8.871ZM9.524 288.997l23.959-23.567 8.392 32.52-32.351-8.953ZM51.664 199.728l-8.54-32.971 32.816 9.081-24.276 23.89ZM-37.116 109.253l24.036-23.682 8.484 32.682-32.52-9ZM8.896 354.276.58 322.141l31.97 8.847-23.654 23.288ZM74.49 291.308l-9.33-35.876 35.733 9.888-26.404 25.988ZM73.41 224.465l26.894-26.444 9.432 36.496-36.326-10.052ZM52.324 134.005l24.079-23.671 8.441 32.671-32.52-9ZM28.418 109.671l-8.441-32.67L52.497 86l-24.079 23.671ZM32.624 378.923l24.21-23.817 8.522 32.874-32.732-9.057ZM98.09 379.915l-8.702-33.699 33.535 9.28-24.832 24.419ZM96.221 314.447l27.463-27.016 9.667 37.291-37.13-10.275ZM140.051 228.286l-10.216-39.583 39.371 10.895-29.155 28.688ZM139.16 159.447l27.409-26.985 9.636 37.237-37.045-10.252ZM117.69 135.194l-8.844-34.011 33.873 9.374-25.029 24.637ZM28.827 44.197 53.18 20.192l8.59 33.121-32.943-9.116ZM4.821 20.884l-8.915-34.578 34.38 9.514L4.821 20.884ZM-33.18 443.973l23.707-23.318 8.347 32.188-32.054-8.87ZM32.26 443.909l-8.21-31.696 31.546 8.73-23.336 22.966ZM123.49 403.295l22.386-21.998 7.892 30.377-30.278-8.379ZM163.485 317.667l-10.004-38.705 38.482 10.649-28.478 28.056ZM160.685 249.801l29.669-29.229 10.463 40.335-40.132-11.106ZM206.721 161.426l-9.462-36.551 36.368 10.064-26.906 26.487ZM118.514 68.88l24.09-23.714 8.472 32.725-32.562-9.011ZM94.655 44.376 86.27 11.995l32.224 8.917-23.84 23.464ZM58.263 468.23l21.166-20.879 7.463 28.802-28.629-7.923ZM122.519 465.698l-6.902-26.551 26.473 7.326-19.571 19.225ZM188.557 401.124l-7.134-27.526 27.403 7.584-20.269 19.942ZM188.254 338.55l24.21-23.817 8.521 32.874-32.731-9.057ZM229.885 251.78l-9.686-37.387 37.214 10.298-27.528 27.089ZM229.629 183.935l26.142-25.696 9.169 35.468-35.311-9.772ZM207.858 93.65l24.21-23.818 8.521 32.875-32.731-9.058ZM184.154 68.916l-8.298-32.038 31.886 8.823-23.588 23.215ZM-8.805 533.567 13.527 511.6l7.82 30.311-30.152-8.344ZM56.342 530.781 49.5 504.338l26.304 7.279-19.462 19.164ZM153.158 491.53l14.255-14.001 4.987 19.326-19.242-5.325ZM213.938 483.3l-3.605-14.115 14.039 3.885-10.434 10.23ZM220.323 426.175l12.968-12.808 4.624 17.676-17.592-4.868ZM254.728 335.902l-7.084-27.376 27.276 7.548-20.192 19.828ZM255.677 273.082l22.583-22.217 7.991 30.678-30.574-8.461ZM297.215 182.37l-7.744-29.927 29.813 8.25-22.069 21.677ZM300.919 117.489l19.594-19.31 6.921 26.647-26.515-7.337ZM274.198 91.649l-7.376-28.459 28.333 7.841-20.957 20.618ZM186.183 3.344l22.147-21.791 7.836 30.088-29.983-8.297ZM86.175 556.892l15.271-15.04 5.366 20.751-20.637-5.711ZM147.416 549.79l-4.27-16.485 16.408 4.541-12.138 11.944ZM250.087 514.39l4.706-4.664 1.68 6.431-6.386-1.767ZM280.526 416.736l-2.976-11.618 11.544 3.194-8.568 8.424ZM287.703 360.695l11.45-11.27 4.028 15.553-15.478-4.283ZM321.807 267.562l-5.627-21.78 21.651 5.991-16.024 15.789ZM326.955 206.679l16.102-15.903 5.677 21.93-21.779-6.027ZM365.395 110.054l-4.513-17.419 17.338 4.799-12.825 12.62ZM278.998 27.252l17.89-17.595 6.299 24.289-24.189-6.694ZM251.233.576l-6.841-26.443 26.303 7.28L251.233.575ZM182.388 579.873l6.625-6.502 2.382 8.994-9.007-2.492ZM238.683 567.94l-1.27-4.952 4.905 1.358-3.635 3.594ZM305.212 501.589l-.759-2.852 2.876.796-2.117 2.056ZM317.564 448.893l3.056-2.98 1.088 4.127-4.144-1.147ZM347.161 350.004l-2.291-8.833 8.796 2.434-6.505 6.399ZM356.389 294.941l8.263-8.144 2.901 11.233-11.164-3.089ZM389.46 197.149l-3.261-12.562 12.517 3.464-9.256 9.098ZM399.189 139.947l8.371-8.205 2.963 11.341-11.334-3.136ZM374.76 50.383l9.835-9.713 3.486 13.4-13.321-3.687ZM342.16 19.955 337.777 2.89l16.958 4.693-12.575 12.37ZM276.231 603.52l1.07-1.071.368 1.469-1.438-.398ZM371.624 435.66l-.41-1.48 1.481.41-1.071 1.07ZM384.632 383.556l1.931-1.88.649 2.594-2.58-.714ZM413.959 282.678l-1.301-5.006 4.99 1.381-3.689 3.625ZM425.868 228.949l4.06-3.977 1.396 5.487-5.456-1.51ZM456.938 127.37l-1.176-4.47 4.44 1.229-3.264 3.241ZM470.137 73.588l2.314-2.275.815 3.14-3.129-.865ZM433.364 38.497l-1.6-6.227 6.174 1.708-4.574 4.52ZM480.622 215.68l-.424-1.757 1.733.479-1.309 1.278ZM494.266 163.25l1.189-1.174.418 1.619-1.607-.445ZM51.678 704.436l-1.27-4.952 4.906 1.358-3.636 3.594ZM121.226 645.226l6.625-6.502 2.382 8.995-9.007-2.493ZM62.43 617.97l-4.27-16.485 16.407 4.54L62.43 617.97ZM2.708 614.435l13.042-10.951 2.965 16.764-16.007-5.813Z" fill="#2B2D42"/></svg>