<svg width="29" height="28" viewBox="0 0 29 28" fill="none" xmlns="http://www.w3.org/2000/svg"><g clip-path="url(#a)"><path d="M12.07.07c.969-.104 1.946-.09 2.912.04.352.042.701.105 1.047.187a3.458 3.458 0 0 1-.353-.006 9.238 9.238 0 0 0-4.568 1.048c-.367.096-.729.21-1.084.343a16.411 16.411 0 0 0-5.132 3.157c-.3.271-.59.558-.875.847A9.771 9.771 0 0 1 5.48 3.371 9.292 9.292 0 0 1 7.814 1.46 11.075 11.075 0 0 1 12.07.07ZM1.416 17.508c.277.593.612 1.158 1 1.686.152.264.285.541.459.792a11.636 11.636 0 0 0 3.306 3.263c.16.172.342.323.51.486.672.641 1.374 1.25 2.1 1.83a9.4 9.4 0 0 1-1.413-.435 9.151 9.151 0 0 1-3-1.892 9.692 9.692 0 0 1-1.755-2.2 8.938 8.938 0 0 0-.287-.5c-.158-.374-.34-.738-.468-1.123a8.581 8.581 0 0 1-.452-1.907Z" fill="#D9DADC"/><path d="M11.088 1.341A9.22 9.22 0 0 1 15.646.295c.117.008.234.01.351.006 1.136.05 2.257.282 3.319.687a12.325 12.325 0 0 1 3.204 1.823 15.685 15.685 0 0 1 2.256 2.163c.42.483.808.992 1.162 1.525.3.424.57.867.813 1.326a12.584 12.584 0 0 1 1.632 5.6 14.082 14.082 0 0 1-.793 5.194 14.639 14.639 0 0 1-1.846 3.651 10.574 10.574 0 0 1-2.323 2.416 9.5 9.5 0 0 1-2.736 1.388c-.317.081-.63.185-.95.257a13.26 13.26 0 0 1-2.948.344c-.265.022-.527-.01-.792-.008a17.521 17.521 0 0 1-5.7-1.269 22.22 22.22 0 0 1-4.127-2.143A11.614 11.614 0 0 1 2.87 20c-.173-.25-.305-.527-.458-.79v-.045a.54.54 0 0 1-.06-.088 9.815 9.815 0 0 1-.948-3.806 8.912 8.912 0 0 1 .584-3.648c.402-.986.927-1.918 1.562-2.773.578-.8 1.21-1.553 1.862-2.289.856-.967 1.707-1.938 2.623-2.849a13.934 13.934 0 0 1 3.053-2.37Zm-4.117 6.6v7.57c.013.421.007.843.006 1.266 2.562 1.483 5.139 2.942 7.7 4.427 2.573-1.474 5.145-2.95 7.715-4.427V15.07c0-.663-.012-1.326-.006-1.99V7.935a1293.36 1293.36 0 0 0-7.708-4.424C12.11 4.987 9.532 6.446 6.971 7.936v.005Z" fill="#1166E4"/><path d="M20.637 8.124a.69.69 0 0 1 .83.64v5.1a.98.98 0 0 1-.083.545.712.712 0 0 1-.924.27.683.683 0 0 1-.347-.407 1.296 1.296 0 0 1-.023-.35v-2.814a1.066 1.066 0 0 0-.1-.533.405.405 0 0 0-.3-.213.78.78 0 0 0-.42.09c-1.032.47-2.061.948-3.093 1.42a1.256 1.256 0 0 0-.713.94c-.016.125-.021.252-.016.378v4.337a.734.734 0 0 1-.42.644.816.816 0 0 1-.959-.18.68.68 0 0 1-.178-.43c-.011-.608.01-1.215 0-1.822v-2.7a1.32 1.32 0 0 0-.434-.979 1.67 1.67 0 0 0-.445-.259c-1.338-.614-2.676-1.234-4.015-1.847a.834.834 0 0 1-.414-.347.82.82 0 0 1 .579-1.168.734.734 0 0 1 .429.07l4.336 2c.412.185.878.21 1.308.07.126-.046.249-.099.369-.159 1.188-.553 2.381-1.094 3.569-1.65.442-.2.87-.434 1.324-.61a.86.86 0 0 1 .14-.036Z" fill="#1166E4"/><path d="M10.024 1.681c.355-.132.717-.247 1.084-.343A13.96 13.96 0 0 0 8.05 3.717c-.918.912-1.77 1.886-2.628 2.855a31.71 31.71 0 0 0-1.866 2.294 12.63 12.63 0 0 0-1.566 2.779 8.93 8.93 0 0 0-.585 3.656c.057 1.322.38 2.62.95 3.814a.541.541 0 0 0 .06.089v.045a10.07 10.07 0 0 1-1-1.686 8.976 8.976 0 0 1-.815-3.845 11.082 11.082 0 0 1 1.57-5.617 13.172 13.172 0 0 1 1.844-2.416c.285-.289.573-.576.875-.847a16.41 16.41 0 0 1 5.134-3.157ZM6.178 23.249a22.26 22.26 0 0 0 4.135 2.148c1.82.74 3.753 1.17 5.716 1.272.264 0 .527.03.791.008.995-.004 1.986-.12 2.956-.345.32-.072.633-.176.95-.257a9.2 9.2 0 0 1-3.587 1.626 9.425 9.425 0 0 1-5.242-.321 11.492 11.492 0 0 1-2.776-1.556c-.112-.085-.229-.163-.334-.257a32.82 32.82 0 0 1-2.1-1.83c-.167-.168-.349-.316-.509-.488Z" fill="#F88C00"/><path d="M6.956 7.95c2.566-1.492 5.15-2.954 7.72-4.438 2.576 1.473 5.15 2.95 7.723 4.433V13.1c-.006.665.012 1.329.007 1.994v1.71c-2.576 1.48-5.153 2.96-7.731 4.437-2.566-1.488-5.147-2.95-7.714-4.436 0-.423.008-.846-.006-1.27V7.952Zm13.679.202a.863.863 0 0 0-.135.04c-.454.176-.882.408-1.324.61-1.187.556-2.381 1.1-3.57 1.65a3.27 3.27 0 0 1-.368.158c-.43.14-.896.116-1.308-.07-1.446-.666-2.891-1.332-4.336-2a.734.734 0 0 0-.43-.07.819.819 0 0 0-.578 1.169c.095.158.24.28.414.347 1.34.613 2.677 1.233 4.016 1.847.16.063.31.15.444.259a1.32 1.32 0 0 1 .435.979v2.7c.005.607-.017 1.214 0 1.82a.68.68 0 0 0 .178.43.816.816 0 0 0 .959.182.736.736 0 0 0 .42-.644v-4.337c-.006-.127 0-.253.015-.38a1.256 1.256 0 0 1 .713-.938c1.032-.472 2.062-.95 3.094-1.421a.78.78 0 0 1 .419-.09.407.407 0 0 1 .3.214c.078.166.113.35.1.533v2.813c-.008.117 0 .236.024.35a.681.681 0 0 0 .347.407.712.712 0 0 0 .923-.27.98.98 0 0 0 .084-.545v-5.1a.69.69 0 0 0-.835-.646l-.001.003Z" fill="#fff"/></g><defs><clipPath id="a"><path fill="#fff" transform="translate(.602)" d="M0 0h27.797v27.927H0z"/></clipPath></defs></svg>