<svg width="87" height="43" viewBox="0 0 87 43" fill="none" xmlns="http://www.w3.org/2000/svg"><path d="M14.178 9.545h13.974v4.296L22.425 21H5.73L.002 13.84V4.39L3.725.955H24.43l3.722 3.437v3.55H8.88v2.664l2.52 3.407h5.784l1.26-1.603h-4.266V9.545ZM47.016 21h-8.848V7.94H29.72V.954h25.744v6.987h-8.448V21ZM66.184.954l10.481 9.765V.954h8.849V21h-8.849l-10.48-9.765V21h-8.85V.954h8.85Z" fill="#D90429"/><path d="M10.905 34.106h10.147v3.118l-4.159 5.199H4.771L.612 37.224v-6.861l2.704-2.495h15.033l2.703 2.495v2.578H7.058v1.934l1.83 2.474h4.2l.915-1.164h-3.098v-2.08ZM36.6 27.868l5.905 14.555H36.08l-.479-1.31H28.99l-.478 1.31h-6.425l5.905-14.555H36.6Zm-2.745 8.255L32.71 32.94h-.831l-1.144 3.181h3.119ZM52.334 42.423l-1.185-5.49h-.52l-.957 5.49h-6.445l2.994-14.555h6.446l1.746 6.965h.998l1.788-6.965h6.446l2.974 14.555h-6.446l-.977-5.49h-.52l-1.185 5.49h-5.157ZM82.984 34.064v2.162H74.52v1.123h11.582v5.074H68.075V27.868h18.028v5.073H74.52v1.123h8.463Z" fill="#2B2D42"/></svg>