<svg width="88" height="42" viewBox="0 0 88 42" fill="none" xmlns="http://www.w3.org/2000/svg"><path d="M15.125 8.591H29.1v4.296l-5.727 7.159H6.677L.95 12.886v-9.45L4.673 0h20.704L29.1 3.436v3.551H9.827v2.664l2.52 3.407h5.785l1.26-1.603h-4.267V8.59ZM47.964 20.046h-8.849V6.987h-8.448V0h25.745v6.987h-8.448v13.059ZM67.132 0l10.48 9.765V0h8.85v20.046h-8.85l-10.48-9.765v9.765h-8.85V0h8.85ZM11.853 33.151H22v3.12l-4.16 5.198H5.72L1.56 36.27V29.41l2.703-2.495h15.033L22 29.409v2.578H8.006v1.934l1.83 2.474h4.2l.915-1.164h-3.098v-2.08ZM37.547 26.914l5.905 14.555h-6.425l-.478-1.31h-6.612l-.478 1.31h-6.425l5.905-14.555h8.608Zm-2.744 8.254-1.144-3.18h-.832l-1.143 3.18h3.119ZM53.282 41.469l-1.186-5.49h-.52l-.956 5.49h-6.446l2.994-14.555h6.446l1.747 6.965h.998l1.788-6.965h6.446l2.973 14.555H61.12l-.977-5.49h-.52l-1.185 5.49h-5.157ZM83.931 33.11v2.162h-8.463v1.123H87.05v5.074H69.023V26.914H87.05v5.073H75.468v1.123h8.463Z" fill="#8D99AE"/></svg>