<svg width="20" height="16" viewBox="0 0 20 16" fill="none" xmlns="http://www.w3.org/2000/svg"><path clip-rule="evenodd" d="M1 2.8v0c0 .6.3 1.1.8 1.5l6 4.1c1.4.9 3.1.9 4.5 0l6-4c.4-.5.7-1 .7-1.6v0c0-1-.8-1.8-1.8-1.8H2.8C1.8 1 1 1.8 1 2.8Z" stroke="#D90429" stroke-width="1.5" stroke-linecap="round" stroke-linejoin="round"/><path d="M1 3v10c0 1.1.9 2 2 2h14c1.1 0 2-.9 2-2V3M1.588 14.412l6.094-6.094M12.36 8.36l6.052 6.052" stroke="#D90429" stroke-width="1.5" stroke-linecap="round" stroke-linejoin="round"/></svg>