<svg width="61" height="61" viewBox="0 0 61 61" fill="none" xmlns="http://www.w3.org/2000/svg">
<path d="M17.5447 0H42.6066C47.2598 0 51.7224 1.84846 55.0126 5.13874C58.3029 8.42901 60.1514 12.8916 60.1514 17.5447V42.6084C60.1509 47.2612 58.3022 51.7234 55.012 55.0133C51.7218 58.3032 47.2595 60.1514 42.6066 60.1514H17.5447C12.8919 60.1514 8.42959 58.3032 5.13936 55.0133C1.84913 51.7234 0.000469179 47.2612 0 42.6084L0 17.5447C0 12.8916 1.84846 8.42901 5.13874 5.13874C8.42901 1.84846 12.8916 0 17.5447 0V0Z" fill="url(#paint0_linear_125_5525)"/>
<path d="M30.2279 38.8488H23.6325L20.0853 34.6347H12.5133V38.8488H7.58447V30.7107H21.4423C22.1167 30.733 22.7841 30.5683 23.3707 30.2348C23.6092 30.1097 23.8086 29.9214 23.9472 29.6905C24.0858 29.4595 24.1581 29.1949 24.1562 28.9256C24.1719 28.6517 24.1146 28.3785 23.9903 28.1339C23.866 27.8893 23.679 27.6821 23.4485 27.5333C22.8396 27.1907 22.1452 27.0298 21.4476 27.0698H7.58978L10.8043 22.9264H21.0425C21.9843 22.9295 22.9242 23.0129 23.8519 23.1758C24.7752 23.3248 25.668 23.6236 26.495 24.0604C27.2763 24.4781 27.9489 25.0732 28.4588 25.7977C29.004 26.6303 29.2744 27.6129 29.2319 28.6072C29.2357 29.2087 29.1388 29.8067 28.9453 30.3763C28.7613 30.9204 28.4834 31.4282 28.1244 31.8766C27.7587 32.3282 27.3154 32.7111 26.8152 33.007C26.2747 33.3258 25.6825 33.5474 25.0655 33.6616C25.3806 33.9073 25.6823 34.1695 25.9696 34.4471C26.3033 34.7644 26.748 35.2008 27.3035 35.7563L30.2279 38.8488ZM53.0147 28.8955C53.0242 29.731 52.8426 30.5576 52.4839 31.3122C52.1284 32.0421 51.6015 32.6752 50.9483 33.1574C50.2049 33.699 49.3701 34.1023 48.4839 34.3481C47.4066 34.6482 46.2919 34.7924 45.1738 34.7762H36.841V38.8453H31.9422V30.7071H45.6585C46.2879 30.7448 46.9114 30.5683 47.4277 30.2065C47.6314 30.0503 47.7949 29.8478 47.9047 29.6159C48.0146 29.3839 48.0675 29.1291 48.0593 28.8725C48.0683 28.6176 48.0157 28.3643 47.9057 28.1342C47.7957 27.9041 47.6317 27.704 47.4277 27.551C46.9082 27.197 46.286 27.0252 45.6585 27.0627H31.9422L35.2046 22.9193H45.2056C46.3246 22.903 47.4399 23.0514 48.5157 23.3598C49.4023 23.6123 50.2339 24.0281 50.9678 24.5859C51.6148 25.0858 52.1364 25.7297 52.491 26.4665C52.8467 27.2262 53.0257 28.0567 53.0147 28.8955Z" fill="white"/>
<defs>
<linearGradient id="paint0_linear_125_5525" x1="8.6618" y1="6.19559" x2="48.3617" y2="51.6099" gradientUnits="userSpaceOnUse">
<stop stop-color="#B43093"/>
<stop offset="1" stop-color="#000472"/>
</linearGradient>
</defs>
</svg>
