<svg width="50" height="50" viewBox="0 0 50 50" fill="none" xmlns="http://www.w3.org/2000/svg"><circle cx="25" cy="25" r="25" fill="#D90429"/><path d="M14.462 20.208h5.156v1.585l-2.113 2.641h-6.16l-2.113-2.641v-3.487l1.373-1.268h7.64l1.373 1.268v1.31h-7.11v.983l.929 1.257h2.134l.465-.591h-1.574v-1.057ZM26.578 24.434h-3.264v-4.818h-3.117v-2.578h9.498v2.578h-3.117v4.818ZM33.65 17.038l3.868 3.603v-3.603h3.265v7.396h-3.265l-3.867-3.603v3.603h-3.265v-7.396h3.265ZM13.254 29.27h3.744v1.15l-1.534 1.918h-4.473L9.457 30.42v-2.532l.997-.92h5.547l.997.92v.952h-5.163v.713l.675.913h1.55l.338-.43h-1.144v-.767ZM22.735 26.968l2.179 5.37h-2.37l-.177-.483h-2.44l-.176.483H17.38l2.179-5.37h3.176Zm-1.013 3.046L21.3 28.84h-.307l-.421 1.174h1.15ZM28.54 32.338l-.437-2.025h-.192l-.353 2.025H25.18l1.105-5.37h2.378l.645 2.57h.368l.66-2.57h2.378l1.097 5.37h-2.378l-.36-2.025h-.193l-.437 2.025h-1.902ZM39.85 29.254v.798h-3.123v.414H41v1.872H34.35v-5.37H41v1.872h-4.273v.414h3.122Z" fill="#fff"/></svg>