<svg width="60" height="60" viewBox="0 0 60 60" fill="none" xmlns="http://www.w3.org/2000/svg"><path d="M51.981 23.809a5.057 5.057 0 1 1-7.152 7.152 5.057 5.057 0 0 1 7.152-7.152M35.507 14.78a7.788 7.788 0 1 1-11.014 11.014 7.788 7.788 0 0 1 11.014-11.013M15.171 23.809A5.057 5.057 0 1 1 8.02 30.96a5.057 5.057 0 0 1 7.152-7.152M57.5 47.5v-2.74a6.25 6.25 0 0 0-6.25-6.25h-2.002M2.5 47.5v-2.74a6.25 6.25 0 0 1 6.25-6.25h2.002M43.347 47.5v-4.002a8.75 8.75 0 0 0-8.75-8.75H25.4a8.75 8.75 0 0 0-8.75 8.75V47.5" stroke="#2B2D42" stroke-width="2.5" stroke-linecap="round" stroke-linejoin="round"/></svg>