<svg width="40" height="40" viewBox="0 0 40 40" fill="none" xmlns="http://www.w3.org/2000/svg"><path d="M2.333 31.667a1 1 0 1 0 2 0h-2Zm20 0a1 1 0 1 0 2 0h-2Zm-18 0C4.333 28.552 6.886 26 10 26v-2c-4.219 0-7.667 3.448-7.667 7.667h2ZM10 26h6.667v-2H10v2Zm6.667 0c3.114 0 5.666 2.552 5.666 5.667h2c0-4.22-3.447-7.667-7.666-7.667v2Z" fill="#2B2D42"/><path d="M17.5 10c2.333 2.333 2.333 6 0 8.167-2.333 2.166-6 2.333-8.167 0C7.167 15.833 7 12.333 9.167 10c2.166-2.333 6-2.167 8.333 0" stroke="#2B2D42" stroke-width="2" stroke-linecap="round" stroke-linejoin="round"/><path d="M26.667 22.334a1 1 0 1 0 0 2v-2Zm9 6a1 1 0 1 0 2 0h-2Zm-9-4h5v-2h-5v2Zm5 0c2.28 0 4 1.718 4 4h2c0-3.386-2.615-6-6-6v2Z" fill="#2B2D42"/><path d="M32.167 11.167c1.666 1.666 1.666 4.333 0 5.833-1.667 1.5-4.334 1.667-5.834 0s-1.666-4.333 0-5.833c1.5-1.5 4.167-1.5 5.834 0" stroke="#2B2D42" stroke-width="2" stroke-linecap="round" stroke-linejoin="round"/></svg>