<svg width="40" height="40" viewBox="0 0 40 40" fill="none" xmlns="http://www.w3.org/2000/svg"><path clip-rule="evenodd" d="M33.333 25.833H30a3.332 3.332 0 0 1-3.333-3.333v0A3.332 3.332 0 0 1 30 19.166h3.333c.92 0 1.667.747 1.667 1.667v3.334c0 .92-.747 1.666-1.667 1.666Z" stroke="#2B2D42" stroke-width="1.5" stroke-linecap="round" stroke-linejoin="round"/><path d="M33.333 19.167v-5A3.332 3.332 0 0 0 30 10.834H7.5a2.5 2.5 0 0 1-2.5-2.5v0a2.5 2.5 0 0 1 2.5-2.5h20.833" stroke="#2B2D42" stroke-width="1.5" stroke-linecap="round" stroke-linejoin="round"/><path d="M33.333 25.834v5A3.332 3.332 0 0 1 30 34.166H8.333A3.332 3.332 0 0 1 5 30.833v-22.5" stroke="#2B2D42" stroke-width="1.5" stroke-linecap="round" stroke-linejoin="round"/></svg>