<svg width="30" height="30" viewBox="0 0 30 30" fill="none" xmlns="http://www.w3.org/2000/svg">
<g clip-path="url(#clip0_100_2960)">
<path d="M16.5427 1.54286C16.5427 1.84801 16.4523 2.1463 16.2827 2.40002C16.1132 2.65374 15.8722 2.8515 15.5903 2.96827C15.3084 3.08505 14.9982 3.1156 14.6989 3.05607C14.3996 2.99654 14.1247 2.84959 13.9089 2.63382C13.6932 2.41805 13.5462 2.14314 13.4867 1.84385C13.4271 1.54457 13.4577 1.23435 13.5745 0.952431C13.6912 0.670511 13.889 0.42955 14.1427 0.260018C14.3964 0.090487 14.6947 0 14.9999 0C15.4091 0 15.8015 0.162551 16.0909 0.451892C16.3802 0.741234 16.5427 1.13367 16.5427 1.54286Z" fill="#8D99AE"/>
<path opacity="0.65" d="M16.5427 28.4572C16.5427 28.7623 16.4523 29.0606 16.2827 29.3143C16.1132 29.5681 15.8722 29.7658 15.5903 29.8826C15.3084 29.9994 14.9982 30.0299 14.6989 29.9704C14.3996 29.9108 14.1247 29.7639 13.9089 29.5481C13.6932 29.3324 13.5462 29.0574 13.4867 28.7582C13.4271 28.4589 13.4577 28.1487 13.5745 27.8667C13.6912 27.5848 13.889 27.3439 14.1427 27.1743C14.3964 27.0048 14.6947 26.9143 14.9999 26.9143C15.4091 26.9143 15.8015 27.0769 16.0909 27.3662C16.3802 27.6555 16.5427 28.048 16.5427 28.4572Z" fill="#8D99AE"/>
<path opacity="0.45" d="M28.4569 16.5429C28.1518 16.5429 27.8535 16.4524 27.5998 16.2828C27.346 16.1133 27.1483 15.8724 27.0315 15.5904C26.9147 15.3085 26.8842 14.9983 26.9437 14.699C27.0032 14.3997 27.1502 14.1248 27.366 13.909C27.5817 13.6933 27.8566 13.5463 28.1559 13.4868C28.4552 13.4273 28.7654 13.4578 29.0473 13.5746C29.3293 13.6914 29.5702 13.8891 29.7398 14.1428C29.9093 14.3966 29.9998 14.6949 29.9998 15C29.9998 15.4092 29.8372 15.8016 29.5479 16.091C29.2585 16.3803 28.8661 16.5429 28.4569 16.5429Z" fill="#8D99AE"/>
<path opacity="0.8" d="M1.54286 16.5429C1.23771 16.5429 0.939414 16.4524 0.685692 16.2828C0.431971 16.1133 0.234219 15.8724 0.117444 15.5904C0.000668499 15.3085 -0.0298852 14.9983 0.0296463 14.699C0.0891778 14.3997 0.236121 14.1248 0.451893 13.909C0.667666 13.6933 0.942576 13.5463 1.24186 13.4868C1.54115 13.4273 1.85136 13.4578 2.13328 13.5746C2.4152 13.6914 2.65617 13.8891 2.8257 14.1428C2.99523 14.3966 3.08572 14.6949 3.08572 15C3.08572 15.4092 2.92316 15.8016 2.63382 16.091C2.34448 16.3803 1.95205 16.5429 1.54286 16.5429Z" fill="#8D99AE"/>
<path opacity="0.35" d="M25.6061 6.57339C25.3905 6.78947 25.1156 6.93673 24.8162 6.99651C24.5168 7.0563 24.2064 7.02593 23.9243 6.90925C23.6422 6.79256 23.4011 6.59481 23.2314 6.34102C23.0618 6.08723 22.9712 5.78881 22.9712 5.48353C22.9712 5.17825 23.0618 4.87983 23.2314 4.62604C23.4011 4.37225 23.6422 4.1745 23.9243 4.05782C24.2064 3.94113 24.5168 3.91076 24.8162 3.97055C25.1156 4.03033 25.3905 4.17759 25.6061 4.39367C25.8948 4.68293 26.0569 5.07488 26.0569 5.48353C26.0569 5.89218 25.8948 6.28414 25.6061 6.57339Z" fill="#8D99AE"/>
<path opacity="0.7" d="M6.57341 25.6063C6.35776 25.8224 6.08285 25.9697 5.78348 26.0295C5.48411 26.0893 5.17373 26.0589 4.89163 25.9422C4.60953 25.8255 4.36838 25.6278 4.19871 25.374C4.02904 25.1202 3.93848 24.8218 3.93848 24.5165C3.93848 24.2112 4.02904 23.9128 4.19871 23.659C4.36838 23.4052 4.60953 23.2075 4.89163 23.0908C5.17373 22.9741 5.48411 22.9437 5.78348 23.0035C6.08285 23.0633 6.35776 23.2105 6.57341 23.4266C6.86207 23.7159 7.02419 24.1078 7.02419 24.5165C7.02419 24.9251 6.86207 25.3171 6.57341 25.6063Z" fill="#8D99AE"/>
<path opacity="0.55" d="M23.4266 25.6062C23.2105 25.3906 23.0633 25.1157 23.0035 24.8163C22.9437 24.5169 22.9741 24.2066 23.0908 23.9245C23.2075 23.6424 23.4052 23.4012 23.659 23.2315C23.9128 23.0619 24.2112 22.9713 24.5165 22.9713C24.8218 22.9713 25.1202 23.0619 25.374 23.2315C25.6278 23.4012 25.8255 23.6424 25.9422 23.9245C26.0589 24.2066 26.0893 24.5169 26.0295 24.8163C25.9697 25.1157 25.8224 25.3906 25.6063 25.6062C25.3171 25.8949 24.9251 26.057 24.5165 26.057C24.1078 26.057 23.7159 25.8949 23.4266 25.6062Z" fill="#8D99AE"/>
<path opacity="0.9" d="M5.48292 7.02516C6.33454 7.02516 7.02492 6.33479 7.02492 5.48316C7.02492 4.63154 6.33454 3.94116 5.48292 3.94116C4.6313 3.94116 3.94092 4.63154 3.94092 5.48316C3.94092 6.33479 4.6313 7.02516 5.48292 7.02516Z" fill="#8D99AE"/>
<path opacity="0.2" d="M21.5417 3.138C21.426 3.42046 21.229 3.66222 20.9758 3.8327C20.7226 4.00318 20.4245 4.09471 20.1192 4.09572C19.8139 4.09672 19.5153 4.00714 19.2609 3.83833C19.0066 3.66951 18.808 3.42904 18.6904 3.14735C18.5728 2.86566 18.5414 2.55541 18.6001 2.25586C18.6589 1.9563 18.8052 1.68092 19.0206 1.46454C19.2359 1.24817 19.5106 1.10053 19.8098 1.04032C20.1091 0.98011 20.4195 1.01003 20.7017 1.12628C21.0797 1.28195 21.3804 1.58121 21.5379 1.95838C21.6954 2.33555 21.6968 2.7598 21.5417 3.138Z" fill="#8D99AE"/>
<path opacity="0.7" d="M11.3142 28.0338C11.1984 28.3162 11.0015 28.558 10.7483 28.7285C10.495 28.8989 10.1969 28.9905 9.89167 28.9915C9.58641 28.9925 9.28771 28.9029 9.03338 28.7341C8.77904 28.5653 8.5805 28.3248 8.46288 28.0431C8.34526 27.7614 8.31384 27.4512 8.37261 27.1516C8.43137 26.8521 8.57768 26.5767 8.79301 26.3603C9.00834 26.1439 9.28302 25.9963 9.58228 25.9361C9.88155 25.8759 10.1919 25.9058 10.4742 26.022C10.8521 26.1777 11.1528 26.477 11.3103 26.8541C11.4678 27.2313 11.4692 27.6556 11.3142 28.0338Z" fill="#8D99AE"/>
<path opacity="0.5" d="M26.862 21.5417C26.5796 21.426 26.3378 21.229 26.1673 20.9758C25.9968 20.7226 25.9053 20.4245 25.9043 20.1192C25.9033 19.8139 25.9929 19.5153 26.1617 19.2609C26.3305 19.0066 26.571 18.808 26.8527 18.6904C27.1344 18.5728 27.4446 18.5414 27.7442 18.6001C28.0437 18.6589 28.3191 18.8052 28.5355 19.0206C28.7518 19.2359 28.8995 19.5106 28.9597 19.8098C29.0199 20.1091 28.99 20.4195 28.8737 20.7017C28.7181 21.0797 28.4188 21.3804 28.0416 21.5379C27.6645 21.6954 27.2402 21.6968 26.862 21.5417Z" fill="#8D99AE"/>
<path opacity="0.85" d="M1.96652 11.3143C1.68406 11.1986 1.44229 11.0016 1.27181 10.7484C1.10133 10.4952 1.0098 10.197 1.0088 9.89179C1.0078 9.58653 1.09737 9.28783 1.26619 9.0335C1.435 8.77916 1.67547 8.58062 1.95716 8.463C2.23885 8.34538 2.54911 8.31397 2.84866 8.37273C3.14821 8.4315 3.4236 8.5778 3.63997 8.79313C3.85635 9.00846 4.00398 9.28314 4.06419 9.5824C4.1244 9.88167 4.09449 10.1921 3.97823 10.4743C3.82257 10.8523 3.5233 11.153 3.14613 11.3105C2.76896 11.4679 2.34471 11.4693 1.96652 11.3143Z" fill="#8D99AE"/>
<path opacity="0.4" d="M28.0132 11.238C27.7316 11.3557 27.4214 11.3873 27.1218 11.3288C26.8222 11.2702 26.5468 11.1241 26.3303 10.9089C26.1138 10.6938 25.966 10.4192 25.9055 10.12C25.8451 9.82083 25.8748 9.51044 25.9908 9.22812C26.1068 8.9458 26.304 8.70424 26.5573 8.53399C26.8107 8.36375 27.1088 8.27248 27.4141 8.27173C27.7193 8.27098 28.0179 8.36079 28.2721 8.52978C28.5263 8.69878 28.7246 8.93937 28.842 9.22112C28.9993 9.59851 29.0003 10.0229 28.8449 10.4011C28.6895 10.7792 28.3903 11.0802 28.0132 11.238Z" fill="#8D99AE"/>
<path opacity="0.75" d="M3.17166 21.6069C2.89004 21.7247 2.57979 21.7564 2.28018 21.6978C1.98057 21.6393 1.70505 21.4932 1.48851 21.278C1.27197 21.0628 1.12414 20.7882 1.06372 20.489C1.0033 20.1897 1.03302 19.8793 1.1491 19.5969C1.26519 19.3146 1.46242 19.073 1.71585 18.9028C1.96928 18.7326 2.2675 18.6414 2.57278 18.6408C2.87806 18.6401 3.17667 18.73 3.43082 18.8992C3.68497 19.0683 3.88323 19.309 4.00052 19.5909C4.15751 19.9682 4.15841 20.3923 4.00302 20.7703C3.84763 21.1482 3.54864 21.4491 3.17166 21.6069Z" fill="#8D99AE"/>
<path opacity="0.6" d="M18.762 28.0132C18.6443 27.7316 18.6127 27.4214 18.6713 27.1218C18.7298 26.8222 18.8759 26.5468 19.0911 26.3303C19.3063 26.1138 19.5808 25.966 19.88 25.9055C20.1792 25.8451 20.4896 25.8748 20.7719 25.9908C21.0542 26.1068 21.2958 26.304 21.466 26.5573C21.6363 26.8107 21.7275 27.1088 21.7283 27.4141C21.729 27.7193 21.6392 28.0179 21.4702 28.2721C21.3012 28.5263 21.0607 28.7246 20.7789 28.842C20.4015 28.9993 19.9771 29.0003 19.599 28.8449C19.2208 28.6895 18.9198 28.3903 18.762 28.0132Z" fill="#8D99AE"/>
<path opacity="0.95" d="M8.39242 3.17148C8.27465 2.88988 8.24305 2.57968 8.30162 2.28012C8.3602 1.98056 8.50631 1.7051 8.72147 1.4886C8.93663 1.2721 9.21118 1.12429 9.51037 1.06386C9.80956 1.00344 10.12 1.03311 10.4023 1.14914C10.6846 1.26516 10.9262 1.46232 11.0964 1.71566C11.2666 1.96901 11.3579 2.26716 11.3587 2.57239C11.3594 2.87763 11.2696 3.17622 11.1006 3.4304C10.9316 3.68458 10.691 3.88292 10.4093 4.00033C10.0319 4.1576 9.6075 4.15864 9.22934 4.00323C8.85118 3.84782 8.55017 3.54867 8.39242 3.17148Z" fill="#8D99AE"/>
</g>
<defs>
<clipPath id="clip0_100_2960">
<rect width="30" height="30" fill="white"/>
</clipPath>
</defs>
</svg>
