<svg width="13" height="14" viewBox="0 0 13 14" fill="none" xmlns="http://www.w3.org/2000/svg"><path d="M7.539 6.405v-.917c0-.573-.465-1.038-1.039-1.038v0c-.573 0-1.038.465-1.038 1.038v.917" stroke="#EDF2F4" stroke-linecap="round" stroke-linejoin="round"/><path clip-rule="evenodd" d="M7.69 6.406H5.31a.68.68 0 0 0-.68.68V8.53c0 .375.305.68.68.68h2.38a.68.68 0 0 0 .68-.68V7.086a.68.68 0 0 0-.68-.68Z" stroke="#EDF2F4" stroke-linecap="round" stroke-linejoin="round"/><path clip-rule="evenodd" d="M11.94 6.485c0 2.97-2.147 5.754-5.087 6.586-.23.065-.477.065-.707 0-2.94-.832-5.086-3.616-5.086-6.586v-2.74c0-.552.333-1.05.845-1.258l3.307-1.353a3.397 3.397 0 0 1 2.575 0l3.308 1.353c.51.209.845.706.845 1.258v2.74Z" stroke="#EDF2F4" stroke-linecap="round" stroke-linejoin="round"/></svg>