<svg width="13" height="15" viewBox="0 0 13 15" fill="none" xmlns="http://www.w3.org/2000/svg"><path d="M9.833 4.667h1.334c.736 0 1.333.596 1.333 1.333v6.667c0 .736-.597 1.333-1.333 1.333H1.833A1.333 1.333 0 0 1 .5 12.667V6c0-.737.597-1.333 1.333-1.333h1.334" stroke="#8D99AE" stroke-linecap="round" stroke-linejoin="round"/><path d="m3.89 6.511-.495.066.495-.066Zm-.096-.723.496-.066a.5.5 0 0 0-.098-.237l-.398.303Zm-.443-.58.397-.304-.397.303Zm0-1.083-.397-.303.397.303Zm.443-.58.398.304a.5.5 0 0 0 .098-.238l-.496-.066Zm.097-.724-.496-.067.496.067Zm.765-.766-.065-.495H4.59l.066.495Zm.724-.096.065.496a.5.5 0 0 0 .238-.098l-.303-.398Zm.58-.443.304.397-.304-.397Zm1.082 0 .304-.397-.304.397Zm.58.443-.303.398a.5.5 0 0 0 .237.098l.066-.496Zm.725.097.066-.496-.066.496Zm.765.765.496-.065v-.001l-.496.066Zm.096.724-.495.065a.5.5 0 0 0 .098.238l.397-.303Zm.444.58-.398.304.398-.304Zm0 1.082.397.304-.397-.304Zm-.444.58-.397-.303a.5.5 0 0 0-.098.237l.495.066Zm-.096.725.495.066-.495-.066Zm-.766.765.066.496-.066-.496Zm-.723.096-.066-.495a.5.5 0 0 0-.237.098l.303.397Zm-.58.444-.304-.398.303.398Zm-1.083 0-.303.397.303-.397Zm-.58-.444.304-.397a.5.5 0 0 0-.238-.098l-.066.495Zm-.724-.096.066-.496-.066.496Zm-.27-.831-.096-.724-.991.132.096.723.991-.131Zm-.194-.961-.444-.581-.794.607.443.58.795-.606Zm-.444-.581a.391.391 0 0 1 0-.475l-.794-.607c-.381.498-.381 1.19 0 1.689l.794-.607Zm0-.475.444-.58-.795-.607-.443.58.794.607Zm.542-.818.097-.724-.992-.132-.096.724.99.132Zm.097-.724a.391.391 0 0 1 .336-.336L4.59 1.56a1.391 1.391 0 0 0-1.195 1.194l.992.133Zm.335-.336.723-.096-.131-.991-.723.096.131.991Zm.961-.194.58-.444-.606-.794-.58.443.606.795Zm.58-.444a.391.391 0 0 1 .476 0l.607-.794a1.391 1.391 0 0 0-1.69 0l.608.794Zm.476 0 .58.444.607-.795-.58-.443-.607.794Zm.817.542.725.097.132-.992-.725-.096-.132.991Zm.725.097c.175.023.312.16.336.336l.99-.133A1.391 1.391 0 0 0 8.414 1.56l-.132.992Zm.336.335.096.723.991-.131-.096-.723-.991.131Zm.194.961.443.58.795-.606-.443-.58-.795.606Zm.443.58a.391.391 0 0 1 0 .476l.795.607a1.391 1.391 0 0 0 0-1.69l-.795.608Zm0 .476-.443.58.795.607.443-.58-.795-.607Zm-.541.817-.097.725.991.132.097-.725-.991-.132Zm-.097.725a.391.391 0 0 1-.336.336l.133.99a1.391 1.391 0 0 0 1.194-1.194l-.99-.132Zm-.335.336-.724.096.132.991.723-.096-.131-.991Zm-.961.194-.581.443.607.795.58-.443-.606-.795Zm-.581.443a.391.391 0 0 1-.475 0l-.607.795c.498.38 1.19.38 1.689 0l-.607-.795Zm-.475 0-.58-.443-.607.795.58.443.607-.795Zm-.818-.541-.724-.097-.132.991.724.097.132-.991Zm-.725-.097a.39.39 0 0 1-.335-.336l-.991.133A1.39 1.39 0 0 0 4.59 7.772l.131-.991Z" fill="#8D99AE"/><path d="M7.537 4.148 6.24 5.445l-.777-.778M3.166 10h6.667M4.5 12h4" stroke="#8D99AE" stroke-linecap="round" stroke-linejoin="round"/></svg>