<svg width="40" height="40" viewBox="0 0 40 40" fill="none" xmlns="http://www.w3.org/2000/svg"><path d="M34.654 15.873a3.372 3.372 0 1 1-4.768 4.768 3.372 3.372 0 0 1 4.768-4.768M23.671 9.854a5.192 5.192 0 1 1-7.342 7.342 5.192 5.192 0 0 1 7.342-7.342M10.114 15.873a3.372 3.372 0 1 1-4.768 4.768 3.372 3.372 0 0 1 4.768-4.768M38.333 31.667V29.84a4.166 4.166 0 0 0-4.166-4.167h-1.335M1.667 31.667V29.84a4.166 4.166 0 0 1 4.166-4.167h1.335M28.898 31.667v-2.669a5.833 5.833 0 0 0-5.833-5.833h-6.132a5.833 5.833 0 0 0-5.833 5.833v2.669" stroke="#2B2D42" stroke-width="2" stroke-linecap="round" stroke-linejoin="round"/></svg>