<svg width="60" height="60" viewBox="0 0 60 60" fill="none" xmlns="http://www.w3.org/2000/svg"><path d="M30 15v3.75M45.91 14.09c8.787 8.787 8.787 23.033 0 31.82-8.787 8.787-23.033 8.787-31.82 0-8.787-8.787-8.787-23.033 0-31.82 8.787-8.787 23.033-8.787 31.82 0M30 45v-3.75" stroke="#2B2D42" stroke-width="2.5" stroke-linecap="round" stroke-linejoin="round"/><path d="M22.5 35.638v0a5.624 5.624 0 0 0 5.625 5.625h4.108a5.268 5.268 0 0 0 5.267-5.268v0a5.266 5.266 0 0 0-3.985-5.107l-7.03-1.763a5.266 5.266 0 0 1-3.985-5.108v0a5.266 5.266 0 0 1 5.267-5.267h4.108a5.624 5.624 0 0 1 5.625 5.625v0" stroke="#2B2D42" stroke-width="2.5" stroke-linecap="round" stroke-linejoin="round"/></svg>