<?xml version="1.0" standalone="no"?>
<!DOCTYPE svg PUBLIC "-//W3C//DTD SVG 20010904//EN"
 "http://www.w3.org/TR/2001/REC-SVG-20010904/DTD/svg10.dtd">
<svg version="1.0" xmlns="http://www.w3.org/2000/svg"
 width="290.000000pt" height="290.000000pt" viewBox="0 0 290.000000 290.000000"
 preserveAspectRatio="xMidYMid meet">
<metadata>
Created by potrace 1.14, written by Peter Selinger 2001-2017
</metadata>
<g transform="translate(0.000000,290.000000) scale(0.100000,-0.100000)"
fill="#000000" stroke="none">
<path d="M110 2074 l-60 -57 0 -153 0 -154 92 -115 c50 -63 98 -115 105 -116
84 -3 515 0 529 5 11 3 27 18 37 33 9 16 29 42 44 59 15 17 39 46 53 64 14 18
32 40 40 48 10 10 15 38 16 89 l1 73 -229 0 -229 0 3 -47 3 -47 67 1 67 1 -16
-24 c-8 -13 -18 -25 -22 -25 -23 -4 -183 -4 -189 1 -4 3 -23 24 -41 48 -34 44
-54 110 -41 133 6 9 86 12 316 13 l309 1 2 55 1 55 -61 57 -62 58 -337 0 -337
0 -61 -56z"/>
<path d="M1019 2118 c-1 -16 -1 -165 0 -194 1 -21 5 -22 131 -21 71 0 132 -2
136 -5 3 -3 5 -99 5 -212 l0 -206 27 -1 c31 -1 243 -1 255 0 4 1 7 96 7 211 0
193 1 210 18 211 9 0 71 1 137 2 l120 2 0 110 0 110 -418 3 c-330 2 -417 0
-418 -10z"/>
<path d="M1918 2123 c-3 -7 -2 -609 1 -638 1 -11 268 -12 279 -1 3 4 7 70 8
146 1 175 0 168 22 144 11 -10 70 -67 133 -125 63 -59 129 -121 148 -138 18
-17 41 -31 50 -32 9 0 73 -1 144 -2 l127 -2 0 50 c1 28 2 175 3 328 l2 278
-145 -3 -145 -3 0 -145 c0 -80 -3 -147 -7 -150 -6 -5 -103 82 -267 238 l-66
62 -142 0 c-78 0 -143 -3 -145 -7z"/>
<path d="M115 1209 l-45 -42 0 -111 0 -111 69 -85 68 -85 196 0 c108 0 198 3
200 5 3 3 34 42 69 86 61 77 65 85 63 130 l-1 49 -150 2 c-82 0 -156 -1 -165
-3 -15 -4 -21 -46 -8 -59 3 -3 24 -6 47 -7 36 -1 40 -3 31 -20 -8 -15 -22 -18
-79 -18 -68 0 -69 0 -100 40 -23 30 -31 48 -28 72 l3 33 223 -1 c243 -1 226
-5 224 60 0 20 -12 39 -44 67 l-43 38 -243 1 -242 0 -45 -41z"/>
<path d="M943 1203 c-34 -75 -162 -396 -165 -413 -2 -12 15 -14 97 -15 90 0
101 2 110 20 10 18 21 20 117 21 100 2 106 1 116 -20 9 -20 16 -22 105 -21 53
0 98 3 101 6 3 3 -36 109 -88 235 l-95 229 -138 3 -139 3 -21 -48z m185 -155
c6 -18 13 -41 17 -50 6 -16 1 -18 -43 -18 l-50 0 16 50 c19 60 46 68 60 18z"/>
<path d="M1545 1208 c-4 -24 -9 -47 -10 -53 -2 -5 -6 -23 -9 -40 -5 -28 -42
-206 -52 -250 -2 -11 -7 -36 -10 -55 l-6 -35 103 0 103 0 8 35 c8 38 19 108
21 128 0 6 6 12 12 12 7 0 19 -34 29 -82 9 -44 18 -84 21 -87 4 -3 41 -6 85
-6 l78 -1 17 71 c23 98 25 105 35 105 4 0 11 -19 15 -42 8 -46 15 -84 20 -108
2 -8 4 -17 4 -20 1 -3 47 -5 104 -5 58 1 101 5 100 11 0 5 -4 25 -7 44 -7 45
-14 77 -20 98 -3 9 -7 33 -10 52 -5 29 -33 166 -51 248 -5 21 -10 22 -110 22
l-104 0 -11 -42 c-6 -24 -14 -51 -17 -62 -3 -10 -6 -24 -7 -30 -2 -6 -6 -28
-11 -49 -7 -35 -28 -57 -41 -45 -2 3 -17 54 -32 114 l-28 109 -106 3 -105 3
-8 -43z"/>
<path d="M2267 1243 c-2 -5 -3 -111 -3 -238 l1 -230 280 -1 c154 0 286 2 293
4 8 3 12 29 12 83 l0 79 -187 2 c-163 3 -186 5 -188 19 -3 15 12 17 119 17 66
0 129 0 139 1 13 1 17 10 17 36 l0 35 -122 -1 c-162 -1 -158 -1 -155 14 1 6 5
14 9 17 3 3 88 5 187 4 l181 0 0 83 0 83 -289 0 c-160 0 -291 -3 -294 -7z"/>
</g>
</svg>
