<svg width="24" height="24" viewBox="0 0 24 24" fill="none" xmlns="http://www.w3.org/2000/svg"><path d="M19.95 9.35a.75.75 0 0 0-1.5 0h1.5ZM3.606 16.108a.75.75 0 1 0-1.212.884l1.212-.884Zm-.733-.297a.75.75 0 1 0 .254 1.478l-.254-1.478Zm2.827-.16.238.71a.75.75 0 0 0 .295-1.238l-.533.527Zm-.9-10.8.66-.356a.75.75 0 0 0-1.27-.082l.61.437Zm5.4 4.5-.177.728a.75.75 0 0 0 .927-.704l-.75-.025Zm8.1-2.7-.626.412a.75.75 0 0 0 .626.337v-.75Zm2.7 0 .624.415A.75.75 0 0 0 21 5.9v.75Zm-2.424 2.283a.75.75 0 1 0 1.248.832l-1.248-.832Zm-.126.416c0 3.012-.86 5.521-2.4 7.266C14.52 18.35 12.26 19.4 9.3 19.4v1.5c3.34 0 6.03-1.2 7.875-3.291 1.835-2.08 2.775-4.97 2.775-8.259h-1.5ZM9.3 19.4c-1.655 0-2.763-.427-3.595-1.017-.856-.605-1.467-1.41-2.1-2.275l-1.21.884c.624.856 1.363 1.851 2.443 2.616 1.103.78 2.517 1.292 4.462 1.292v-1.5Zm-6.173-2.11c.024-.005.043-.01.049-.01a.578.578 0 0 0 .057-.017l.033-.01.093-.03.312-.104a587.641 587.641 0 0 0 2.237-.748l.023-.007.005-.002h.002L5.7 15.65l-.238-.711H5.46l-.006.002-.022.008-.085.028-.303.102a1340.708 1340.708 0 0 1-2.154.719l-.085.027-.018.006.005-.001.015-.005a.7.7 0 0 1 .018-.004l.048-.01.254 1.478Zm3.106-2.167C3.49 12.349 3.284 8.256 5.41 5.287l-1.22-.873c-2.542 3.55-2.291 8.46.977 11.764l1.066-1.055ZM4.14 5.205c1.18 2.195 3.4 4.27 5.884 4.874l.354-1.458C8.41 8.143 6.495 6.418 5.461 4.495l-1.322.71Zm6.81 4.17c.038-1.136.439-2.075 1.075-2.725.632-.646 1.538-1.05 2.676-1.05V4.1c-1.513 0-2.814.547-3.748 1.5-.93.95-1.453 2.261-1.502 3.725l1.5.05ZM14.7 5.6c.806 0 1.396.153 1.849.395.451.24.813.594 1.125 1.068l1.252-.826c-.42-.638-.957-1.184-1.67-1.566-.713-.38-1.557-.57-2.556-.57v1.5Zm3.6 1.8H21V5.9h-2.7v1.5Zm2.076-1.166-1.8 2.7 1.248.832 1.8-2.7-1.248-.832Z" fill="#D90429"/></svg>