<svg width="24" height="24" viewBox="0 0 24 24" fill="none" xmlns="http://www.w3.org/2000/svg"><path clip-rule="evenodd" d="M7.5 3h9.004A4.496 4.496 0 0 1 21 7.496v9.009A4.496 4.496 0 0 1 16.504 21H7.496A4.496 4.496 0 0 1 3 16.504V7.5A4.5 4.5 0 0 1 7.5 3v0Z" stroke="#D90429" stroke-width="1.5" stroke-linecap="round" stroke-linejoin="round"/><path d="M10.684 9.644h1.215v6.076h-.002c-1.251 0-2.626-.76-3.601-2.16-1.464-2.052-1.864-3.603-1.864-3.915M16.658 15.72s-.442-.932-1.339-1.957c-.598-.701-1.44-1.08-2.206-1.08.766 0 1.608-.38 2.206-1.08.897-1.026 1.339-1.958 1.339-1.958M13.113 12.684h-1.216" stroke="#D90429" stroke-width="1.5" stroke-linecap="round" stroke-linejoin="round"/></svg>