<svg width="24" height="24" viewBox="0 0 24 24" fill="none" xmlns="http://www.w3.org/2000/svg"><path d="m13.095 13.56.406-.403c.373-.37.963-.417 1.393-.115.416.292.792.554 1.142.798.556.386.623 1.178.144 1.656l-.359.359M8.145 8.179l.359-.36a1.083 1.083 0 0 1 1.656.145c.243.35.505.726.798 1.142a1.09 1.09 0 0 1-.115 1.393l-.403.406M15.821 15.855c-1.481 1.474-3.97.222-5.935-1.744" stroke="#D90429" stroke-width="1.5" stroke-linecap="round" stroke-linejoin="round"/><path d="M9.888 14.114C7.923 12.148 6.671 9.66 8.145 8.179M10.44 10.905a8.686 8.686 0 0 0 1.19 1.463l.002.002c.462.462.96.87 1.463 1.19" stroke="#D90429" stroke-width="1.5" stroke-linecap="round" stroke-linejoin="round"/><path d="M8.026 19.481v2.227c0 .249.294.383.483.221l2.484-2.308a.588.588 0 0 1 .382-.14h3.786c3.225 0 5.839-2.603 5.839-5.814V9.095C21 5.729 18.26 3 14.879 3h-3.99C7.084 3 4 6.071 4 9.86v4.276c.447 3.563 3.132 5.292 3.973 5.292.03 0 .053.024.053.053Z" stroke="#D90429" stroke-width="1.5"/><path d="M18.365 9.251c.16-2.108-1.494-3.464-3.126-3.588M16.53 9.323c.084-1.098-.778-1.804-1.628-1.87M14.616 9.45a.124.124 0 1 1-.248-.019.124.124 0 0 1 .248.019" stroke="#D90429" stroke-width="1.5" stroke-linecap="round" stroke-linejoin="round"/></svg>