<svg width="24" height="24" viewBox="0 0 24 24" fill="none" xmlns="http://www.w3.org/2000/svg"><path clip-rule="evenodd" d="M5.137 3.916c1.55-1.119 3.743-1.215 5.393-.258a8.52 8.52 0 0 1 5.49.89 8.499 8.499 0 0 1 3.987 4.7 8.546 8.546 0 0 1 .332 4.22 5.074 5.074 0 0 1 .561 3.493 5.046 5.046 0 0 1-2.172 3.214c-1.54 1.036-3.656 1.094-5.261.165-1.787.307-3.671.041-5.287-.784a8.501 8.501 0 0 1-4.11-4.585 8.575 8.575 0 0 1-.412-4.44 5.073 5.073 0 0 1-.546-3.556 5.049 5.049 0 0 1 2.025-3.059v0Z" stroke="#D90429" stroke-width="1.5" stroke-linecap="round" stroke-linejoin="round"/><path d="M9.079 14.436c.302.88 1.493 1.539 2.921 1.539 2 0 3-.884 3-1.975v.025c0-.88-.636-1.631-1.504-1.775L12 12l-1.496-.249A1.8 1.8 0 0 1 9 9.975v0C9 8.884 10 8 12 8c1.429 0 2.619.659 2.921 1.539" stroke="#D90429" stroke-width="1.5" stroke-linecap="round" stroke-linejoin="round"/></svg>