<svg width="24" height="24" viewBox="0 0 24 24" fill="none" xmlns="http://www.w3.org/2000/svg"><path clip-rule="evenodd" d="M7.496 3h9.009A4.495 4.495 0 0 1 21 7.496v9.009A4.495 4.495 0 0 1 16.504 21H7.496A4.495 4.495 0 0 1 3 16.504V7.496A4.495 4.495 0 0 1 7.496 3v0Z" stroke="#D90429" stroke-width="1.5" stroke-linecap="round" stroke-linejoin="round"/><path d="M16.949 6.713a.338.338 0 1 0 .002.674.338.338 0 0 0-.002-.674M14.546 9.454a3.6 3.6 0 1 1-5.092 5.091 3.6 3.6 0 0 1 5.092-5.09" stroke="#D90429" stroke-width="1.5" stroke-linecap="round" stroke-linejoin="round"/></svg>