<svg width="20" height="20" viewBox="0 0 20 20" fill="none" xmlns="http://www.w3.org/2000/svg"><path clip-rule="evenodd" d="M16.666 12.917H15c-.921 0-1.667-.746-1.667-1.667v0c0-.92.746-1.667 1.667-1.667h1.666c.46 0 .834.374.834.834v1.666c0 .46-.374.834-.834.834Z" stroke="#2B2D42" stroke-width="1.5" stroke-linecap="round" stroke-linejoin="round"/><path d="M16.667 9.583v-2.5c0-.92-.746-1.666-1.667-1.666H3.75c-.69 0-1.25-.56-1.25-1.25v0c0-.69.56-1.25 1.25-1.25h10.417" stroke="#2B2D42" stroke-width="1.5" stroke-linecap="round" stroke-linejoin="round"/><path d="M16.667 12.917v2.5c0 .92-.746 1.666-1.667 1.666H4.167c-.921 0-1.667-.745-1.667-1.666V4.167" stroke="#2B2D42" stroke-width="1.5" stroke-linecap="round" stroke-linejoin="round"/></svg>